<svg width="24" height="24" viewBox="0 0 24 24" fill="none" xmlns="http://www.w3.org/2000/svg">
  <path d="M12 6.5V17.5" stroke="#283125" stroke-width="2.2" stroke-linecap="round"/>
  <path d="M6.5 9.5H17.5" stroke="#283125" stroke-width="2.2" stroke-linecap="round"/>
  <path d="M7.5 14.5H16.5" stroke="#283125" stroke-width="2.2" stroke-linecap="round"/>
  <path d="M12 3.8C9 6.2 7.5 8.9 7.5 12C7.5 15.1 9 17.8 12 20.2" stroke="#283125" stroke-width="2.2" stroke-linecap="round" stroke-linejoin="round"/>
  <path d="M12 3.8C15 6.2 16.5 8.9 16.5 12C16.5 15.1 15 17.8 12 20.2" stroke="#283125" stroke-width="2.2" stroke-linecap="round" stroke-linejoin="round"/>
  <path d="M4 12C4 7.6 7.6 4 12 4C16.4 4 20 7.6 20 12C20 16.4 16.4 20 12 20C7.6 20 4 16.4 4 12Z" stroke="#283125" stroke-width="2.2"/>
</svg>
