<svg width="24" height="24" viewBox="0 0 24 24" fill="none" xmlns="http://www.w3.org/2000/svg">
  <path d="M12 8.2C9.9 8.2 8.2 9.9 8.2 12C8.2 14.1 9.9 15.8 12 15.8C14.1 15.8 15.8 14.1 15.8 12C15.8 9.9 14.1 8.2 12 8.2Z" stroke="#283125" stroke-width="2.1"/>
  <path d="M19.2 13.5C19.3 13 19.4 12.5 19.4 12C19.4 11.5 19.3 11 19.2 10.5L21 9.1L19.1 5.9L17 6.8C16.2 6.1 15.4 5.6 14.4 5.3L14.1 3H9.9L9.6 5.3C8.6 5.6 7.8 6.1 7 6.8L4.9 5.9L3 9.1L4.8 10.5C4.7 11 4.6 11.5 4.6 12C4.6 12.5 4.7 13 4.8 13.5L3 14.9L4.9 18.1L7 17.2C7.8 17.9 8.6 18.4 9.6 18.7L9.9 21H14.1L14.4 18.7C15.4 18.4 16.2 17.9 17 17.2L19.1 18.1L21 14.9L19.2 13.5Z" stroke="#283125" stroke-width="2.1" stroke-linejoin="round"/>
</svg>
